# xmcd CD database file
#
# Track frame offsets:
#	182
#	29455
#	59440
#	109280
#	134785
#	166270
#	191810
#	228932
#	266862
#
# Disc length: 3972 seconds
#
# Revision: 0
# Processed by: cddbd v1.5.2PL0 Copyright (c) Steve Scherf et al.
# Submitted via: CDex 1.51
#
DISCID=880f8209
DTITLE=Don Friedman Trio - Almost Everything
DYEAR=1995
DGENRE=Jazz
TTITLE0=On Green Dolphin Street
TTITLE1=Flamands
TTITLE2=Waltz for Marilyn
TTITLE3=Before The Rain
TTITLE4=Emily
TTITLE5=Twigs and Branches
TTITLE6=El Niño
TTITLE7=Darn That Dream
TTITLE8=Almost Everything
EXTD=YEAR: 1995
EXTT0=
EXTT1=
EXTT2=
EXTT3=
EXTT4=
EXTT5=
EXTT6=
EXTT7=
EXTT8=
PLAYORDER=
